<svg id="レイヤー_1" data-name="レイヤー 1" xmlns="http://www.w3.org/2000/svg" xmlns:xlink="http://www.w3.org/1999/xlink" viewBox="0 0 846.74 459.96"><defs><style>.cls-1{fill:url(#名称未設定グラデーション_2);}.cls-2{fill:none;}.cls-3{clip-path:url(#clip-path);}.cls-4{fill:#fff;}.cls-5{clip-path:url(#clip-path-3);}.cls-6{mask:url(#mask);}.cls-7{fill:url(#名称未設定グラデーション);}</style><radialGradient id="名称未設定グラデーション_2" cx="0" cy="459.96" r="1" gradientTransform="translate(766.6 -275684.29) scale(599.86)" gradientUnits="userSpaceOnUse"><stop offset="0" stop-color="#fff"/><stop offset="0.01" stop-color="#fff"/><stop offset="0.04" stop-color="#fff"/><stop offset="0.09" stop-color="#fff"/><stop offset="0.13" stop-color="#fff"/><stop offset="0.17" stop-color="#fff"/><stop offset="0.2" stop-color="#fff"/><stop offset="0.22" stop-color="#fff"/><stop offset="0.28" stop-color="#f5f5f5"/><stop offset="0.39" stop-color="#dedede"/><stop offset="0.53" stop-color="#b5b5b5"/><stop offset="0.69" stop-color="gray"/><stop offset="0.87" stop-color="#383838"/><stop offset="1"/></radialGradient><clipPath id="clip-path"><rect class="cls-2" width="846.74" height="459.96"/></clipPath><clipPath id="clip-path-3"><path class="cls-2" d="M445,0a358.24,358.24,0,0,0-297,159.51,4.13,4.13,0,0,0-.49,3.69,4.22,4.22,0,0,0,2.64,2.64l9.31,3.14a5.31,5.31,0,0,0,1.67.27,5.13,5.13,0,0,0,4.3-2.29,338.84,338.84,0,0,1,592.44,58.42,4.91,4.91,0,0,0,4.5,3h11.12a3.89,3.89,0,0,0,3.87-3.91A3.72,3.72,0,0,0,777,223h0C720.59,84.35,587.07.22,446.06,0Z"/></clipPath><mask id="mask" x="147" y="0" width="630.29" height="228.38" maskUnits="userSpaceOnUse"><rect class="cls-1" x="147" width="630.29" height="228.38"/></mask><radialGradient id="名称未設定グラデーション" cx="0" cy="459.96" r="1" gradientTransform="translate(766.6 -275684.29) scale(599.86)" gradientUnits="userSpaceOnUse"><stop offset="0" stop-color="#fff"/><stop offset="0.01" stop-color="#fff"/><stop offset="0.04" stop-color="#c6ffff"/><stop offset="0.09" stop-color="#80ffff"/><stop offset="0.13" stop-color="#49ffff"/><stop offset="0.17" stop-color="#21ffff"/><stop offset="0.2" stop-color="#09ffff"/><stop offset="0.22" stop-color="aqua"/><stop offset="0.28" stop-color="#01f6ff"/><stop offset="0.39" stop-color="#04deff"/><stop offset="0.53" stop-color="#08b6ff"/><stop offset="0.69" stop-color="#0e7fff"/><stop offset="0.87" stop-color="#1639ff"/><stop offset="1" stop-color="#1c00ff"/></radialGradient></defs><title>logo_header</title><g class="cls-3"><g class="cls-3"><path class="cls-4" d="M384.41,311.7l1,.15c7.63,1,15.12,2.4,20.86,5,5.32,2.35,8.43,5.32,11.27,10.61,4.33,8,4.61,19.28.7,27.79-2.92,6.34-9.33,11.65-15.18,14.47a56.42,56.42,0,0,1-18.93,5.13,67.41,67.41,0,0,1-35.8-6.4c-6.39-3.12-14.2-8.5-18.14-15.43a15.35,15.35,0,0,1,.72-16.5c5.62-7.68,17.64-9.38,26.71-9.06,6.91.27,19.35,2.41,25.91,4.74,1.82.66,8.52,3.26,9.69,4.47a3.21,3.21,0,0,1,1,3.16c-1.5,4.59-12.64,7-15.85,7.49-8.62,1.31-13.09-1.94-22.88-5.81a34.25,34.25,0,0,0-8.14-2.24c-4.44-.42-9.81.82-10.66,5.68-.42,2.5,2.51,4.84,4.75,5.82a35.94,35.94,0,0,0,14.69,3.14c15.26.25,32.43-2.27,44.91-11.11,1.71-1.22,3.39-3,3.41-5.26.05-4.55-7.92-7.33-7.92-7.33-8.41-3.51-24-5.21-32-5.87-8.4-.73-21.62-1.82-24.8-2.29a37,37,0,0,1-9.65-2.39,12,12,0,0,1-6.45-7.34c-1.46-5.73.41-12.77,3.59-17.35,8.35-12,27.89-16.55,42.49-18.36,14.14-1.76,37-1.74,50.87,5.64,2.14,1.14,3.24,2.22,2.79,4.5-.91,4.31-4.14,7.08-8.06,8.3-4.11,1.3-12.61,1.82-16.35,2.05-16.73.94-37,.44-52.9,4.79-1.25.36-3.41.94-4.11,1.72-2.49,2.71,4.63,3.48,6.16,3.8a7,7,0,0,0,1,.17l35.23,4.15Zm-99.57-74.61s2.72-4.08,5-7.17a130,130,0,0,1,17.33-18.32c1.73-1.47,3.78-3.14,3.78-3.14s-3.2.32-5,.69c-4.29.84-10.59,5-13.74,7.73-5.19,4.44-10.89,11.67-8.31,18.08.37.92,1,2.13,1,2.13Zm28.86,7.72a54.61,54.61,0,0,0,23-6.89c7-3.92,17.34-11.57,16.26-20.58a7.53,7.53,0,0,0-4.64-6.13c-3.12-1.36-4.75-1.14-8.75,0a27.1,27.1,0,0,0-6.95,2.94c-8.05,4.68-19.46,14.68-25.65,22.67-1.43,1.88-2.88,4-4,5.43-.72.89-1.27,1.71-1.2,1.92.24.91,8.7.82,11.9.6Zm-20.88,15.35c-.85.89-1.74,3-2.67,4.61a9,9,0,0,1-2,2.34c-2.14,1.58-3.94,1.65-6-.17a14.66,14.66,0,0,1-4.68-10.35c-.06-1.68.23-3.53-.09-5-.52-2.39-2.92-4.85-4.2-7.13a28,28,0,0,1-2.92-10.37c-.52-9.44,4.45-18.14,10.92-25a72.47,72.47,0,0,1,24.3-16.63c8.76-3.69,21.6-6.2,31.21-2.87a23.84,23.84,0,0,1,9.69,6.53,6.58,6.58,0,0,0,1.32,1.51,9.8,9.8,0,0,0,2.44.55,24.36,24.36,0,0,1,9.29,4.4c3.62,3.12,5.6,6.11,6.52,10.45,1.85,8.73-3.18,18.31-8.9,24.13-9.81,10-19.49,17.09-32,22-5.5,2.15-14.09,4.16-20.33,3.6-1.94-.17-3.94-.68-5.83-.8a26.85,26.85,0,0,1-4.89-1.27c-.47-.36-1.07-.68-1.18-.55ZM304,279.49a9.31,9.31,0,0,1,1.48.43c4.39,1.67,6.2,5.74,7.29,10.21,2.51,10.37,3.58,33.33,4,42.32.31,6.74.47,13.39.76,20.05.23,5.64.69,13.15-.49,18.44a8.62,8.62,0,0,1-3.52,5.25c-2.09,1.33-6.84,1.44-9.45.9-6.44-1.34-8.53-5.47-9.45-11.83-2.18-15.2-1.13-45,.16-57.59.43-4.15,2-17.47,4.16-23,.74-1.89,2.32-5.68,5.07-5.14ZM108.2,304.76s-9.58.68-16.17,1.41c-8.39.91-24.16,3.63-33.25,6.88-2.73,1-8.27,3.29-8.76,6.1s1.3,5.18,3.31,7.54c1.16,1.36,7.73,7.68,9.58,9.22,7.72,6.45,23.38,16.39,34.91,21.22,4,1.64,10.52,4,10.52,4s-.49-18.66-.4-37c0-9.7.26-19.3.26-19.3Zm175.66,7.43c.54,5-.74,14.5-1,15.74A72.41,72.41,0,0,1,280,338.28a117.36,117.36,0,0,1-5.31,10.65,87.89,87.89,0,0,1-15.05,18.45c-16.49,14.25-42,22.37-63.92,25A163.14,163.14,0,0,1,148,391.09c-5.42-1-13.48-2.84-13.48-2.84s0,3.23-.23,5.49a22,22,0,0,1-1.35,4.64,7.29,7.29,0,0,1-5.75,4.11c-3.3.61-6.8.82-9.85-.49-5-2.1-6.8-6.78-7.67-12.18-.71-4.33-1.45-11.83-1.45-11.83s-3.74-1.78-6.86-3.33a178.05,178.05,0,0,1-26.67-16.34c-2.2-1.65-11.69-9.59-13.78-11.56-5.91-5.62-11.16-11.17-15.18-18.28-3.12-5.56-4-10.49-1.65-16.38,3.28-8.2,15.05-14.38,23.1-17.9,5.91-2.62,24.29-8.62,31.93-9.73,3.6-.52,9.2-1.52,9.54-1.74a1.72,1.72,0,0,0,.34-.32c.18-.25.47-8.37.41-11.34s2.17-22.12,2.89-26.18c.38-2.19,2-10.64,3.73-12.86,1.11-1.49,3.08-1.38,4.68-.39,8.75,5.44,11.41,24.33,12.06,33.94.39,5.86.59,14.66.59,14.66s10-.3,16.22-.12a147.21,147.21,0,0,1,18.86,2.08c8,1.27,23.53,4.67,32.45,9.19,7.35,3.72,14.22,10,16.45,16.64,2.07,6.09,1.76,10.3-1.39,15.8-3.54,6.2-10.25,10.81-17.05,11.19-2,.12-9.63-.89-12-2.7a2.1,2.1,0,0,1-.21-2.91,67.05,67.05,0,0,1,5.91-3.31,13.53,13.53,0,0,0,2.75-1.94c1.75-1.54,3.32-3.23,3.14-5.22-.24-2.57-3-4.16-5.56-5.18-12.18-4.84-36.5-8.86-48.26-9.55-4.59-.27-11.14-.5-11.14-.5l1.39,64.89s5.4,1,9.67,1.73c2.44.37,12.81,1.3,15.57,1.37,21,.56,44.37-1.32,63.62-10.41,8.45-4,16.2-8.92,22.07-15.62A45.4,45.4,0,0,0,256.56,312c-1.18-13.85-10.93-30.28-18.71-40.29-20.55-26.44-55.79-48.19-86.79-60.93-31.65-13-62.94-20.5-96.53-21.75-8.66-.32-27.54.12-37.08,2.76-1.36.38-2.74.84-4,1.13a11.42,11.42,0,0,0-3,1.25c-.16.14-.32.3-.47.46.38.21.76.39,1.15.56,1,.44,5.27.71,7.47,1.11,2,.38,4,1.41,4.83,2.86s.87,2.45-.05,3.59c-2.16,2.64-10.3,2.19-13.89,1.62s-8.36-1.73-9.21-5c-1-3.82.82-7.57,2.78-11,3.94-6.93,9.58-10.53,17.85-12.79a182.09,182.09,0,0,1,37.62-5.9c25.08-1,48.81,3.43,73.11,10.81a349.93,349.93,0,0,1,45.44,17.68,354.74,354.74,0,0,1,33.1,18.64c2.67,1.76,18.29,13.23,20.72,15.25,5.06,4.14,11.68,10.09,16.47,14.85,9.28,9.19,20.82,23.28,26.43,34.47,1.35,2.68,2.39,5.31,4.13,8.41a73.32,73.32,0,0,1,3.58,9.27c.43,1.82,1.05,4.49,1.13,4.59.13,1,1.36,6.45,1.22,8.55m315.26-14.35c-11.75,2.71-42.63,4.21-42.63,4.21l-3.89,12.2s15.43-1.32,26.66-.15c0,0,3.64-.42,4.06,4.13A68,68,0,0,1,583,327s-.23,2.76-4.14,3.46c-4.23.71-33.26,1.83-33.26,1.83l-4.7,15.9s-1.75,3.68,2.17,2.63c3.64-1,34.05-6.68,38-5.86,4.24,1.05,8.94,6.71,7.58,11.87-1.62,6.4-32,25.75-50.47,24.41,0,0-9.71.62-17.92-12.49-7.65-12.5,2.9-36.15,2.9-36.15s-4.84-11.05-1.33-14.79c0,0,2.08-1.89,8.16-2.32l7.46-15.43s-8.48.58-13.52-5.66c-4.7-5.91-5.09-8.63-1.49-10.26,3.85-1.91,39.15-8.35,63.44-7.53,0,0,8.44-.83,15.76,13.81,0,0,3.55,5.93-2.48,7.35ZM507.76,357c-3.11,7.32-11.33,15.14-21.55,10.28s-26.14-37.74-26.14-37.74-6.1-12.26-7.28-11.94c0,0-1.31-2.4-2.12,11s.16,39.35-5.16,43.44c-5,4.1-11.14,2.47-14.31-2.32-2.87-4.73-4.07-16-2.5-35.67,1.84-19.76,6.43-40.78,12.3-47.32s10.55-1.79,12.38-.07c0,0,7.84,7.1,20.75,27.94l2.28,3.86s11.74,19.69,13,19.65c0,0,.95.9,1.81.25,1.23-.35.73-6.67.73-6.67s-2.43-21.46-13.14-57.79a17.07,17.07,0,0,1-.52-8.77c1.08-4.29,5.39-2.28,5.39-2.28s16.59,8.34,24.64,35.36,2.63,51.42-.53,58.79Zm178.62-16.18c-7.56,13.18-28.89,40.78-57.23,34.26-9.36,22.7-17.22,45.67-21.72,80,0,0-1,6.68-6.54,4.36-5.49-1.93-14.55-11.07-16.39-23.72-2-16.61,5.43-44.7,20.55-76.9-4.41-7.17-7.42-17.41-4.85-32,0,0,3.8-27.08,31-51.48,0,0,3.26-2.82,5.15-1.95,2.08.87,1.11,9.68-.54,14S622,312.64,622,312.64s-7.55,14.16-5.43,25.32c14.27-21.92,46.69-66.15,66.78-52.2,6.75,4.83,9.86,15.34,9.87,26.66,0,9.94-2.4,20.51-6.83,28.43Zm-5.87-34.76s-1.12-8.71-9.64.89c-7.33,8.1-20.55,23.28-31.19,43.91,11.16-1.25,21.94-7.31,25.19-10.4,5.3-4.7,17.63-17.45,15.64-34.4m162-2H790.57a407.62,407.62,0,0,0-6.52-52.57,3.86,3.86,0,0,0-3.8-3.16h-12a3.54,3.54,0,0,0-3.51,3.57,3.47,3.47,0,0,0,.06.64,378.64,378.64,0,0,1,6.62,51.53h-50a4.22,4.22,0,0,0-4.22,4.2h0V319.1a4.22,4.22,0,0,0,4.21,4.23h50.7c0,2.67.06,5.06.06,7.3a377.18,377.18,0,0,1-2.17,42.9,4,4,0,0,0,3.63,4.35H785a4.18,4.18,0,0,0,4.18-3.79,398.52,398.52,0,0,0,2.17-43.42c0-2.24,0-4.63-.06-7.3h51.23a4.22,4.22,0,0,0,4.22-4.22h0V308.36a4.22,4.22,0,0,0-4.22-4.22h0Z"/></g><g class="cls-5"><g class="cls-6"><rect class="cls-7" x="147" width="630.29" height="228.38"/></g></g></g></svg>